<svg width="62" height="62" viewBox="0 0 62 62" fill="none" xmlns="http://www.w3.org/2000/svg">
<path d="M33.1551 28.5511C28.5767 27.0335 26.3646 26.0818 26.3646 23.664C26.3646 21.0404 29.2197 20.0887 31.0202 20.0887C34.3897 20.0887 35.6244 22.6351 35.9073 23.5354L39.9713 21.812C39.5855 20.6545 37.8621 16.8735 33.438 16.0504V12.8609H28.2937V16.1018C21.9148 17.5422 21.889 23.4582 21.889 23.7154C21.889 29.5542 27.6764 31.2004 30.5058 32.2292C34.5698 33.6697 36.3703 34.9815 36.3703 37.4507C36.3703 40.3573 33.6695 41.5919 31.2774 41.5919C26.5961 41.5919 25.2586 36.782 25.1042 36.2161L20.8345 37.9394C22.4549 43.5725 26.699 45.09 28.2937 45.553V48.8711H33.438V45.6816C34.4669 45.4501 40.8973 44.1641 40.8973 37.3993C40.8973 33.824 39.3283 30.686 33.1551 28.5511ZM7.71646 54.0154H2.57214V38.5825H18.0051V43.7268H11.6261C15.7673 49.9257 22.8407 54.0154 30.8659 54.0154C43.6495 54.0154 54.0153 43.6496 54.0153 30.866H59.1596C59.1596 46.5047 46.5046 59.1597 30.8659 59.1597C21.2975 59.1597 12.8351 54.4012 7.71646 47.1478V54.0154ZM2.57214 30.866C2.57214 15.2273 15.2272 2.57227 30.8659 2.57227C40.4343 2.57227 48.8967 7.33076 54.0153 14.5842V7.71658H59.1596V23.1495H43.7267V18.0052H50.1056C45.9644 11.8063 38.891 7.71658 30.8659 7.71658C18.0823 7.71658 7.71646 18.0824 7.71646 30.866H2.57214Z" fill="white"/>
</svg>
