<svg width="62" height="62" viewBox="0 0 62 62" fill="none" xmlns="http://www.w3.org/2000/svg">
<path d="M51.4431 15.4329H41.1545V10.2886C41.1545 7.45923 38.8396 5.14429 36.0102 5.14429H25.7215C22.8922 5.14429 20.5772 7.45923 20.5772 10.2886V15.4329H10.2886C7.45923 15.4329 5.14429 17.7479 5.14429 20.5772V51.4431C5.14429 54.2725 7.45923 56.5874 10.2886 56.5874H51.4431C54.2725 56.5874 56.5874 54.2725 56.5874 51.4431V20.5772C56.5874 17.7479 54.2725 15.4329 51.4431 15.4329ZM25.7215 10.2886H36.0102V15.4329H25.7215V10.2886ZM51.4431 51.4431H10.2886V20.5772H51.4431V51.4431Z" fill="white"/>
<path d="M33.438 25.7215H28.2937V33.438H20.5772V38.5823H28.2937V46.2988H33.438V38.5823H41.1545V33.438H33.438V25.7215Z" fill="white"/>
</svg>
