<svg width="62" height="62" viewBox="0 0 62 62" fill="none" xmlns="http://www.w3.org/2000/svg">
<path d="M11.5747 29.5742C15.1261 29.5742 18.0051 26.6952 18.0051 23.1438C18.0051 19.5924 15.1261 16.7134 11.5747 16.7134C8.0233 16.7134 5.14432 19.5924 5.14432 23.1438C5.14432 26.6952 8.0233 29.5742 11.5747 29.5742Z" fill="white"/>
<path d="M23.1494 19.2856C26.7008 19.2856 29.5798 16.4066 29.5798 12.8552C29.5798 9.30379 26.7008 6.4248 23.1494 6.4248C19.598 6.4248 16.719 9.30379 16.719 12.8552C16.719 16.4066 19.598 19.2856 23.1494 19.2856Z" fill="white"/>
<path d="M38.5824 19.2856C42.1338 19.2856 45.0128 16.4066 45.0128 12.8552C45.0128 9.30379 42.1338 6.4248 38.5824 6.4248C35.031 6.4248 32.152 9.30379 32.152 12.8552C32.152 16.4066 35.031 19.2856 38.5824 19.2856Z" fill="white"/>
<path d="M50.1571 29.5742C53.7085 29.5742 56.5875 26.6952 56.5875 23.1438C56.5875 19.5924 53.7085 16.7134 50.1571 16.7134C46.6057 16.7134 43.7267 19.5924 43.7267 23.1438C43.7267 26.6952 46.6057 29.5742 50.1571 29.5742Z" fill="white"/>
<path d="M44.6012 36.9306C42.3634 34.307 40.4858 32.0692 38.2223 29.4456C37.0391 28.0567 35.5215 26.6677 33.721 26.0504C33.4381 25.9475 33.1551 25.8703 32.8722 25.8189C32.2291 25.716 31.5347 25.716 30.8659 25.716C30.1971 25.716 29.5027 25.716 28.8339 25.8446C28.551 25.896 28.268 25.9732 27.9851 26.0761C26.1846 26.6934 24.6927 28.0824 23.4838 29.4713C21.246 32.0949 19.3684 34.3327 17.1049 36.9563C13.7353 40.3258 9.59415 44.0555 10.3658 49.277C11.1117 51.9006 12.9894 54.4984 16.3589 55.2444C18.2366 55.6302 24.2297 54.1126 30.6087 54.1126H31.0717C37.4506 54.1126 43.4437 55.6045 45.3214 55.2444C48.691 54.4984 50.5686 51.8748 51.3146 49.277C52.1119 44.0298 47.9707 40.3001 44.6012 36.9306Z" fill="white"/>
</svg>
