<svg width="62" height="62" viewBox="0 0 62 62" fill="none" xmlns="http://www.w3.org/2000/svg">
<path d="M42.4406 32.795C50.3886 25.5672 57.8736 18.8024 57.8736 12.9893C57.8736 8.23085 54.1439 4.50122 49.3854 4.50122C46.7104 4.50122 44.1125 5.76158 42.4406 7.71642C40.743 5.76158 38.1708 4.50122 35.4958 4.50122C30.7373 4.50122 27.0077 8.23085 27.0077 12.9893C27.0077 18.8024 34.4926 25.5672 42.4406 32.795ZM35.4958 9.64554C36.6275 9.64554 37.785 10.1857 38.5309 11.0602L42.4406 15.6644L46.3503 11.0602C47.0962 10.1857 48.2537 9.64554 49.3854 9.64554C51.2888 9.64554 52.7292 11.0859 52.7292 12.9893C52.7292 15.8702 47.482 21.1431 42.4406 25.8244C37.3992 21.1431 32.152 15.8444 32.152 12.9893C32.152 11.0859 33.5924 9.64554 35.4958 9.64554Z" fill="white"/>
<path d="M50.1571 40.5114H45.0128C45.0128 37.4248 43.0837 34.6469 40.2028 33.5666L24.3583 27.6506H3.85825V55.9444H19.2912V52.2405L37.2963 57.2305L57.8736 50.8001V48.2279C57.8736 43.9581 54.4269 40.5114 50.1571 40.5114ZM9.00256 50.8001V32.795H14.1469V50.8001H9.00256ZM37.2191 51.8546L19.2912 46.8904V32.795H23.4324L38.4023 38.3765C39.2769 38.7109 39.8685 39.5597 39.8685 40.5114C39.8685 40.5114 34.7499 40.3828 33.9525 40.1256L27.8308 38.0936L26.2103 42.9807L32.332 45.0127C33.6438 45.45 35.0071 45.6815 36.396 45.6815H50.1571C51.1602 45.6815 52.0605 46.2731 52.472 47.1219L37.2191 51.8546Z" fill="white"/>
</svg>
